<svg xmlns="http://www.w3.org/2000/svg" viewBox="0 0 297 102" role="img" aria-label="Soy Alejo 4.0 — Alejandro Linares"><title>Soy Alejo 4.0 — Alejandro Linares</title><g transform="translate(0 0) scale(.36)"><path fill="#CBA65A" d="M26 8H194Q212 8 212 26V254Q212 272 194 272H26Q8 272 8 254V222Q8 210 20 207L57 197Q68 194 68 185Q68 176 57 173L20 163Q8 160 8 148V26Q8 8 26 8Z"/><g fill="#111414"><path fill-rule="evenodd" d="M21 140 54 40H73L106 140H88L81 117H46L39 140ZM51 101H76L63.5 61Z"/><path d="M109 37H126V219Q126 252 93 252H78V235H91Q109 235 109 217Z"/><path fill-rule="evenodd" d="M195 103H147C149 121 174 125 184 110L195 119C180 140 151 138 138 119C123 97 137 65 161 65C185 65 197 80 195 103ZM147 90H179C176 73 149 74 147 90Z"/><path fill-rule="evenodd" d="M196 180C196 158 184 145 165 145C146 145 134 158 134 180C134 202 146 216 165 216C184 216 196 202 196 180ZM180 180C180 165 175 159 165 159C155 159 150 165 150 180C150 195 155 202 165 202C175 202 180 195 180 180Z"/><path transform="translate(143 29)" d="M0.506,9.413L2.475,9.222C2.593,9.882 2.833,10.368 3.196,10.678 C3.558,10.988 4.047,11.143 4.662,11.143 C5.314,11.143 5.805,11.005 6.135,10.729 C6.466,10.453 6.631,10.131 6.631,9.762 C6.631,9.525 6.561,9.323 6.422,9.157 C6.283,8.99 6.041,8.846 5.694,8.723 C5.457,8.641 4.917,8.495 4.074,8.285 C2.99,8.016 2.229,7.686 1.791,7.294 C1.176,6.743 0.868,6.07 0.868,5.277 C0.868,4.767 1.013,4.29 1.302,3.845 C1.592,3.401 2.009,3.063 2.553,2.83 C3.098,2.598 3.755,2.481 4.525,2.481 C5.783,2.481 6.73,2.757 7.366,3.309 C8.001,3.86 8.335,4.596 8.367,5.517 L6.344,5.605C6.257,5.09 6.071,4.72 5.787,4.495 C5.502,4.269 5.075,4.156 4.505,4.156 C3.917,4.156 3.457,4.277 3.124,4.519 C2.91,4.674 2.803,4.881 2.803,5.141 C2.803,5.378 2.903,5.58 3.104,5.749 C3.359,5.963 3.979,6.187 4.963,6.419 C5.947,6.651 6.675,6.892 7.147,7.14 C7.619,7.389 7.988,7.728 8.254,8.159 C8.521,8.589 8.654,9.121 8.654,9.755 C8.654,10.329 8.495,10.867 8.176,11.368 C7.857,11.869 7.406,12.242 6.822,12.486 C6.239,12.73 5.512,12.852 4.642,12.852 C3.375,12.852 2.402,12.559 1.723,11.973 C1.044,11.388 0.638,10.534 0.506,9.413 ZM9.946,7.725C9.946,6.704 10.099,5.847 10.404,5.154 C10.632,4.644 10.943,4.186 11.337,3.78 C11.732,3.375 12.163,3.074 12.633,2.878 C13.257,2.614 13.977,2.481 14.793,2.481 C16.27,2.481 17.451,2.939 18.337,3.855 C19.224,4.771 19.667,6.045 19.667,7.677 C19.667,9.295 19.227,10.56 18.348,11.474 C17.468,12.388 16.292,12.845 14.82,12.845 C13.33,12.845 12.145,12.39 11.266,11.481 C10.386,10.572 9.946,9.32 9.946,7.725 ZM12.031,7.656C12.031,8.791 12.293,9.651 12.817,10.237 C13.341,10.822 14.007,11.115 14.813,11.115 C15.62,11.115 16.282,10.825 16.799,10.244 C17.317,9.663 17.575,8.791 17.575,7.629 C17.575,6.48 17.323,5.624 16.82,5.059 C16.316,4.493 15.647,4.211 14.813,4.211 C13.979,4.211 13.307,4.497 12.797,5.069 C12.286,5.641 12.031,6.503 12.031,7.656 ZM23.878,12.674L23.878,8.456L20.207,2.652L22.579,2.652L24.938,6.617L27.248,2.652L29.579,2.652L25.895,8.47L25.895,12.674Z"/><path transform="translate(151 234)" d="M4.673,13.579L4.673,11.418L0.278,11.418L0.278,9.617L4.937,2.798L6.665,2.798L6.665,9.609L7.998,9.609L7.998,11.418L6.665,11.418L6.665,13.579ZM4.673,9.609L4.673,5.94L2.205,9.609ZM9.419,13.579L9.419,11.521L11.477,11.521L11.477,13.579ZM16.626,2.798C17.666,2.798 18.479,3.169 19.065,3.911 C19.763,4.79 20.112,6.248 20.112,8.284 C20.112,10.315 19.761,11.775 19.058,12.664 C18.477,13.396 17.666,13.762 16.626,13.762 C15.581,13.762 14.739,13.361 14.099,12.557 C13.459,11.754 13.14,10.322 13.14,8.262 C13.14,6.24 13.491,4.785 14.194,3.896 C14.775,3.164 15.586,2.798 16.626,2.798 ZM16.626,4.504C16.377,4.504 16.155,4.584 15.959,4.742 C15.764,4.901 15.613,5.186 15.505,5.596 C15.364,6.128 15.293,7.024 15.293,8.284 C15.293,9.543 15.356,10.409 15.483,10.88 C15.61,11.351 15.77,11.665 15.963,11.821 C16.156,11.978 16.377,12.056 16.626,12.056 C16.875,12.056 17.097,11.976 17.292,11.818 C17.488,11.659 17.639,11.375 17.747,10.964 C17.888,10.437 17.959,9.543 17.959,8.284 C17.959,7.024 17.896,6.158 17.769,5.687 C17.642,5.216 17.482,4.901 17.289,4.742 C17.096,4.584 16.875,4.504 16.626,4.504 Z"/></g></g><g transform="translate(104 14)" fill="#F2F0E9"><path transform="translate(0 0)" d="M20.83,26.253L16.27,26.253L14.458,21.538L6.16,21.538L4.446,26.253L0,26.253L8.085,5.494L12.518,5.494ZM13.112,18.04L10.252,10.337L7.448,18.04ZM23.166,26.253L23.166,5.664L27.357,5.664L27.357,22.755L37.779,22.755L37.779,26.253ZM40.767,26.253L40.767,5.494L56.159,5.494L56.159,9.006L44.959,9.006L44.959,13.608L55.38,13.608L55.38,17.105L44.959,17.105L44.959,22.755L56.556,22.755L56.556,26.253ZM67.601,5.494L71.778,5.494L71.778,18.635C71.778,20.353 71.627,21.674 71.325,22.6 C70.919,23.808 70.182,24.778 69.116,25.51 C68.049,26.241 66.642,26.607 64.896,26.607 C62.847,26.607 61.271,26.033 60.167,24.886 C59.062,23.74 58.505,22.057 58.496,19.838 L62.446,19.385C62.493,20.575 62.668,21.415 62.97,21.906 C63.423,22.652 64.112,23.024 65.038,23.024 C65.972,23.024 66.633,22.758 67.02,22.224 C67.407,21.691 67.601,20.584 67.601,18.904 ZM94.958,26.253L90.398,26.253L88.586,21.538L80.288,21.538L78.575,26.253L74.128,26.253L82.214,5.494L86.646,5.494ZM87.241,18.04L84.38,10.337L81.577,18.04ZM97.224,26.253L97.224,5.494L101.302,5.494L109.798,19.357L109.798,5.494L113.692,5.494L113.692,26.253L109.486,26.253L101.118,12.716L101.118,26.253ZM118.11,5.494L125.771,5.494C127.498,5.494 128.815,5.626 129.721,5.891 C130.939,6.249 131.982,6.887 132.851,7.802 C133.719,8.718 134.38,9.839 134.833,11.165 C135.286,12.492 135.513,14.127 135.513,16.072 C135.513,17.78 135.3,19.253 134.876,20.49 C134.356,22 133.615,23.223 132.652,24.157 C131.925,24.865 130.944,25.417 129.707,25.814 C128.782,26.107 127.545,26.253 125.997,26.253 L118.11,26.253ZM122.301,9.006L122.301,22.755L125.431,22.755C126.601,22.755 127.446,22.689 127.965,22.557 C128.645,22.387 129.209,22.099 129.658,21.693 C130.106,21.287 130.472,20.62 130.755,19.69 C131.038,18.76 131.18,17.493 131.18,15.888 C131.18,14.283 131.038,13.051 130.755,12.192 C130.472,11.333 130.075,10.663 129.565,10.181 C129.056,9.7 128.409,9.374 127.626,9.204 C127.04,9.072 125.893,9.006 124.185,9.006 ZM139.081,26.253L139.081,5.494L147.903,5.494C150.121,5.494 151.733,5.681 152.739,6.053 C153.744,6.426 154.549,7.09 155.153,8.043 C155.757,8.996 156.059,10.087 156.059,11.314 C156.059,12.872 155.601,14.158 154.686,15.173 C153.77,16.187 152.401,16.827 150.579,17.091 C151.485,17.62 152.234,18.201 152.824,18.833 C153.414,19.465 154.209,20.589 155.21,22.203 L157.744,26.253L152.731,26.253L149.701,21.736C148.625,20.122 147.889,19.104 147.492,18.684 C147.096,18.264 146.676,17.976 146.232,17.821 C145.788,17.665 145.085,17.587 144.122,17.587 L143.273,17.587L143.273,26.253ZM143.273,14.273L146.374,14.273C148.384,14.273 149.64,14.188 150.14,14.019 C150.641,13.849 151.032,13.556 151.315,13.141 C151.599,12.725 151.74,12.206 151.74,11.583 C151.74,10.884 151.554,10.32 151.181,9.891 C150.808,9.461 150.282,9.19 149.602,9.077 C149.262,9.029 148.243,9.006 146.544,9.006 L143.273,9.006ZM159.16,16.001C159.16,13.886 159.476,12.112 160.109,10.677 C160.581,9.619 161.225,8.671 162.042,7.831 C162.858,6.99 163.753,6.367 164.725,5.961 C166.018,5.414 167.51,5.14 169.2,5.14 C172.258,5.14 174.706,6.089 176.542,7.986 C178.378,9.884 179.296,12.522 179.296,15.902 C179.296,19.253 178.385,21.875 176.563,23.768 C174.741,25.661 172.306,26.607 169.256,26.607 C166.169,26.607 163.715,25.665 161.893,23.782 C160.071,21.899 159.16,19.305 159.16,16.001 ZM163.479,15.859C163.479,18.21 164.022,19.992 165.107,21.205 C166.193,22.418 167.571,23.024 169.242,23.024 C170.913,23.024 172.284,22.423 173.356,21.219 C174.427,20.015 174.963,18.21 174.963,15.803 C174.963,13.424 174.441,11.649 173.398,10.479 C172.355,9.308 170.97,8.723 169.242,8.723 C167.515,8.723 166.122,9.315 165.065,10.5 C164.008,11.684 163.479,13.471 163.479,15.859 Z"/><path transform="translate(0 34)" d="M2.223,26.253L2.223,5.664L6.415,5.664L6.415,22.755L16.836,22.755L16.836,26.253ZM19.697,26.253L19.697,5.494L23.888,5.494L23.888,26.253ZM27.924,26.253L27.924,5.494L32.002,5.494L40.498,19.357L40.498,5.494L44.392,5.494L44.392,26.253L40.187,26.253L31.818,12.716L31.818,26.253ZM67.544,26.253L62.984,26.253L61.172,21.538L52.874,21.538L51.161,26.253L46.714,26.253L54.8,5.494L59.232,5.494ZM59.827,18.04L56.966,10.337L54.163,18.04ZM69.781,26.253L69.781,5.494L78.603,5.494C80.821,5.494 82.433,5.681 83.439,6.053 C84.444,6.426 85.249,7.09 85.853,8.043 C86.457,8.996 86.759,10.087 86.759,11.314 C86.759,12.872 86.301,14.158 85.386,15.173 C84.47,16.187 83.101,16.827 81.279,17.091 C82.186,17.62 82.934,18.201 83.524,18.833 C84.114,19.465 84.909,20.589 85.91,22.203 L88.444,26.253L83.432,26.253L80.401,21.736C79.325,20.122 78.589,19.104 78.192,18.684 C77.796,18.264 77.376,17.976 76.932,17.821 C76.488,17.665 75.785,17.587 74.822,17.587 L73.973,17.587L73.973,26.253ZM73.973,14.273L77.074,14.273C79.084,14.273 80.34,14.188 80.84,14.019 C81.341,13.849 81.732,13.556 82.016,13.141 C82.299,12.725 82.44,12.206 82.44,11.583 C82.44,10.884 82.254,10.32 81.881,9.891 C81.508,9.461 80.982,9.19 80.302,9.077 C79.962,9.029 78.943,9.006 77.244,9.006 L73.973,9.006ZM90.71,26.253L90.71,5.494L106.102,5.494L106.102,9.006L94.901,9.006L94.901,13.608L105.323,13.608L105.323,17.105L94.901,17.105L94.901,22.755L106.499,22.755L106.499,26.253ZM108.991,19.499L113.069,19.102C113.314,20.471 113.812,21.476 114.563,22.118 C115.313,22.76 116.326,23.081 117.6,23.081 C118.95,23.081 119.967,22.795 120.652,22.224 C121.336,21.653 121.678,20.985 121.678,20.221 C121.678,19.73 121.534,19.312 121.246,18.968 C120.958,18.623 120.456,18.323 119.738,18.068 C119.247,17.898 118.129,17.596 116.382,17.162 C114.136,16.605 112.559,15.921 111.653,15.109 C110.378,13.967 109.741,12.574 109.741,10.932 C109.741,9.874 110.041,8.885 110.64,7.965 C111.24,7.045 112.104,6.344 113.232,5.862 C114.36,5.381 115.722,5.14 117.317,5.14 C119.922,5.14 121.884,5.711 123.2,6.854 C124.517,7.996 125.209,9.52 125.275,11.427 L121.084,11.611C120.904,10.545 120.519,9.778 119.929,9.31 C119.339,8.843 118.454,8.609 117.274,8.609 C116.057,8.609 115.103,8.86 114.414,9.36 C113.97,9.681 113.749,10.11 113.749,10.648 C113.749,11.139 113.956,11.559 114.372,11.909 C114.9,12.352 116.184,12.815 118.223,13.296 C120.262,13.778 121.77,14.276 122.747,14.79 C123.724,15.305 124.489,16.008 125.041,16.9 C125.594,17.792 125.87,18.894 125.87,20.207 C125.87,21.396 125.539,22.51 124.878,23.548 C124.218,24.587 123.283,25.358 122.075,25.864 C120.866,26.369 119.361,26.621 117.558,26.621 C114.933,26.621 112.918,26.015 111.511,24.802 C110.105,23.588 109.265,21.821 108.991,19.499 Z"/></g></svg>